<?xml version="1.0" encoding="UTF-8" standalone="no"?>
<svg
   viewBox="0 0 270 84"
   version="1.1"
   id="svg4"
   width="270"
   height="84"
   xmlns="http://www.w3.org/2000/svg"
   xmlns:svg="http://www.w3.org/2000/svg">
  <defs
     id="defs8" />
  <path
     d="m 223.19907,73.044776 c 0,-0.298507 0.1017,-0.597015 0,-0.895522 -0.20342,-0.298508 -0.30512,-0.497513 -0.50853,-0.696518 -0.50853,-0.597015 -1.01706,-1.094527 -1.62729,-1.691542 l -6.00062,-5.970149 4.67845,-4.676617 2.54264,-2.686567 c 0.40682,-0.39801 0.91535,-1.19403 0.91535,-1.791045 v -0.39801 c 0,-0.895522 -0.40683,-1.393035 -1.32217,-1.59204 l 0.20341,0.0995 h -0.71194 c -0.61023,0 -2.33923,1.592039 -2.74605,2.089552 -1.52558,1.492537 -2.54263,2.885572 -4.57674,4.378109 V 47.373134 c 0,-1.094527 -0.61024,-1.592039 -1.729,-1.592039 h -0.30511 c -1.11876,0 -2.03411,0.497512 -2.03411,1.592039 v 25.771145 c 0,1.094527 0.91535,1.492537 2.03411,1.492537 h 0.30511 c 1.11876,0 1.729,-0.497513 1.729,-1.492537 v -4.577115 l 3.05116,2.885572 c 0.91535,0.895523 1.8307,1.492538 2.64434,2.288558 0.40682,0.398009 1.22047,0.895522 1.8307,0.895522 h 0.30512 c 1.01705,0 1.32217,-0.497513 1.52558,-1.293532 l -0.20341,0.0995 z m 39.76682,-20.298507 h -0.40682 c -2.23752,0 -4.27163,0.597015 -6.10233,1.890547 -3.05116,2.189055 -4.78015,5.074627 -4.78015,8.855721 v 9.751244 c 0,1.094527 0.40682,1.393035 1.52558,1.393035 h 0.30512 c 1.11876,0 2.23752,-0.39801 2.23752,-1.393035 v -9.154229 c 0,-1.99005 0.40682,-3.880597 1.9324,-5.373134 1.22046,-1.19403 2.74605,-2.189055 4.47504,-2.189055 1.32217,0 2.84775,-0.298507 2.84775,-1.890547 0,-1.19403 -0.91535,-1.890547 -2.03411,-1.890547 z m -15.66264,4.975124 c -1.11876,-1.791045 -2.64434,-3.18408 -4.57674,-4.079602 -3.55969,-1.691542 -7.32279,-1.890547 -10.78078,0.0995 l -0.50852,0.298507 c -1.42388,0.79602 -2.64435,1.791045 -3.55969,3.084577 -2.64435,3.781095 -2.94946,8.059702 -0.61024,12.039801 l 0.20341,0.39801 c 1.01706,1.691542 2.33923,3.084577 4.06822,3.9801 3.6614,1.990049 7.62791,2.189054 11.2893,0.199005 l 0.30512,-0.199005 c 1.01706,-0.597015 1.22047,-1.59204 0.71194,-2.587065 -0.20341,-0.39801 -0.61023,-0.696518 -1.01706,-0.895523 h -0.20341 c -0.71193,-0.0995 -2.64434,0.696518 -3.35628,0.995025 -1.42387,0.199005 -3.05116,0.298508 -4.47503,-0.199005 l 7.72961,-6.567164 c 1.11876,-0.995025 2.33922,-2.089552 3.55969,-2.985074 1.01705,-0.79602 2.03411,-1.890548 1.22046,-3.283583 z m -7.01767,3.58209 -8.64496,7.263681 c -0.30512,-0.298507 -0.50853,-0.696517 -0.71194,-0.995025 -0.61023,-0.995025 -1.01706,-2.189054 -1.01706,-3.383084 -0.1017,-2.985075 1.01706,-5.472637 3.76311,-6.965174 2.0341,-1.19403 4.27162,-1.393035 6.50914,-0.597015 1.11876,0.39801 2.44093,1.094527 3.15287,2.089552 -1.01705,0.895522 -2.13581,1.691542 -3.05116,2.587065 z M 158.10759,45.781095 h -0.30512 c -1.11876,0 -1.72899,0.398009 -1.72899,1.492537 v 8.059701 c -2.03411,-1.791044 -4.47504,-2.487562 -7.32279,-2.487562 h -0.81365 c -1.9324,0 -3.7631,0.298508 -5.49209,1.293532 -3.6614,2.089553 -5.6955,5.17413 -5.6955,9.353234 v 0.79602 c 0,1.890547 0.50852,3.482587 1.52558,5.17413 2.13581,3.582089 5.49209,5.373134 9.66201,5.373134 h 0.81365 c 1.9324,0 3.96651,-0.298508 5.5938,-1.19403 3.66139,-2.089552 5.79721,-5.174129 5.79721,-9.253731 V 47.472637 c 0,-1.293533 -0.91535,-1.691542 -2.03411,-1.691542 z m -3.15287,21.691542 c -1.52558,2.487562 -3.7631,3.880597 -6.71256,3.880597 -1.22047,0 -2.44093,-0.298508 -3.45799,-0.895523 -2.64434,-1.393034 -4.16992,-3.681592 -4.16992,-6.666666 0,-1.094528 0.20341,-2.089552 0.71194,-3.084577 1.42388,-2.885572 3.7631,-4.477612 7.01768,-4.477612 1.62728,0 3.05116,0.497512 4.27162,1.393035 2.13582,1.492537 3.35628,3.482587 3.35628,6.069651 0.10171,1.393035 -0.30511,2.587065 -1.01705,3.781095 z m 19.01891,-14.726368 h -0.61023 c -1.9324,0 -3.8648,0.298507 -5.49209,1.293532 -3.6614,2.089552 -5.69551,5.174129 -5.69551,9.353234 v 0.79602 c 0,1.890547 0.50853,3.482587 1.52559,5.174129 2.13581,3.58209 5.49209,5.373134 9.76372,5.373134 h 0.81364 c 1.9324,0 3.86481,-0.298507 5.5938,-1.194029 3.6614,-2.089553 5.79721,-5.17413 5.79721,-9.253732 v -0.79602 c 0,-1.791044 -0.61023,-3.283582 -1.42388,-4.776119 -2.23752,-3.9801 -5.79721,-5.970149 -10.27225,-5.970149 z m 6.50915,14.726368 c -1.52558,2.38806 -3.66139,3.880597 -6.61085,3.880597 -1.32217,0 -2.64434,-0.298508 -3.86481,-0.995025 -2.54263,-1.492537 -3.96651,-3.58209 -3.96651,-6.467662 0,-1.094527 0.20341,-2.089552 0.71194,-3.084577 1.42388,-2.885572 3.7631,-4.477612 7.01767,-4.477612 1.52559,0 2.84776,0.39801 4.06822,1.19403 2.23752,1.492537 3.55969,3.58209 3.55969,6.268657 0.10171,1.19403 -0.20341,2.487562 -0.91535,3.681592 z m 24.91783,-13.333334 -0.1017,0.0995 c -1.72899,-1.094527 -3.6614,-1.492537 -5.69551,-1.492537 h -0.81364 c -1.9324,0 -3.86481,0.298507 -5.49209,1.293532 -3.6614,2.089552 -5.69551,5.174129 -5.69551,9.253731 v 0.79602 c 0,0.995025 0.20341,1.890548 0.40683,2.885572 1.62728,5.472637 6.00062,8.557214 11.89953,8.159204 1.62729,-0.0995 6.00062,-0.597015 6.00062,-2.985074 v -0.39801 c 0,-0.895523 -0.71194,-1.691543 -1.52558,-1.890547 l -0.10171,-0.199005 h -0.71193 l -0.20341,0.298507 c -0.91535,0.39801 -2.44093,1.19403 -3.45799,1.19403 -1.22046,0 -2.54263,0 -3.66139,-0.597015 -2.94946,-1.393035 -4.67845,-3.681592 -4.67845,-6.865672 0,-1.094527 0.20341,-2.089552 0.71193,-3.084577 1.42388,-2.786069 3.7631,-4.577114 7.01768,-4.477612 0.61023,0 1.72899,0.298508 2.33922,0.597015 0.50853,0.199005 1.8307,0.995025 2.44093,0.995025 h 0.20341 l 0.10171,-0.199005 c 0.91535,-0.199005 1.62729,-0.895522 1.62729,-1.791045 v -0.39801 c 0,-0.39801 -0.20341,-0.696517 -0.40682,-0.995025 z M 9.4142446,62.895522 9.51595,63.094527 C 17.55068,76.427861 31.58603,82 46.943551,82 76.641538,82 101.15255,68.965174 112.34014,41.60199 119.86634,42 127.59596,39.810945 131.25735,32.746269 l 0.91535,-1.791045 -1.8307,-0.995025 c -4.37333,-2.487562 -10.17054,-2.78607 -15.0524,-1.393035 -0.61023,-5.174129 -4.06822,-9.651741 -8.13644,-12.835821 l -1.62728,-1.293532 -1.32217,1.59204 c -2.74605,3.084577 -3.55969,8.258706 -3.15287,12.238806 0.30512,2.885572 1.22047,5.870646 3.05117,8.258706 -1.42388,0.79602 -2.94946,1.890547 -4.373338,2.38806 -2.847752,0.995025 -6.000621,1.99005 -9.051784,1.99005 H 83.862624 V 26.875622 H 70.640917 V 2 H 55.385102 V 13.940299 H 29.958743 V 26.875622 H 16.737036 V 40.80597 H 5.3460271 L 5.1426162,42.298507 C 4.634089,48.666667 5.4477325,54.835821 8.1937793,60.706468 Z M 70.640917,29.860697 H 81.828515 V 40.80597 H 70.640917 Z M 57.41921,3.9900498 H 68.606808 V 14.935323 H 57.41921 Z m 0,12.9353232 H 68.606808 V 27.870647 H 57.41921 Z m 0,12.935324 H 68.606808 V 40.80597 H 57.41921 Z M 44.197504,16.925373 H 55.385102 V 27.870647 H 44.197504 Z m 0,12.935324 H 55.385102 V 40.80597 H 44.197504 Z m 1.11876,31.044776 c 0,1.691542 -1.423876,3.084577 -3.152869,3.084577 -1.728992,0 -3.152868,-1.393035 -3.152868,-3.084577 0,-1.691543 1.423876,-3.084577 3.152868,-3.084577 1.728993,0.0995 3.152869,1.393034 3.152869,3.084577 z M 31.992852,16.925373 H 42.163395 V 27.870647 H 31.992852 Z m 0,12.935324 H 42.163395 V 40.80597 H 31.992852 Z m -13.221707,0 H 29.958743 V 40.80597 H 18.771145 Z m 2.44093,37.810945 c 1.627287,0 3.254574,0 4.780156,-0.0995 3.966512,-0.199005 7.424497,-0.696517 10.272249,-1.492537 2.339225,5.273632 6.610853,10.149254 14.238761,13.731343 l -3.55969,0.0995 C 30.874092,79.810948 22.22913,74.537313 15.109749,67.572139 c 2.135814,0.0995 4.169923,0.0995 6.102326,0.0995 z m 20.95132,-4.577115 c 1.220465,0 2.23752,-0.995025 2.23752,-2.189054 0,-0.298508 -0.101706,-0.597015 -0.203411,-0.79602 -0.203411,0.298507 -0.406822,0.497512 -0.813644,0.497512 -0.508527,0 -0.915349,-0.39801 -0.915349,-0.895522 0,-0.298508 0.203411,-0.597015 0.406822,-0.79602 -0.101705,-0.0995 -0.406822,-0.199005 -0.711938,-0.199005 -1.220465,0 -2.237519,0.995025 -2.237519,2.189055 0.101705,1.194029 1.017054,2.189054 2.237519,2.189054 z"
     fill="#019bc6"
     id="path2"
     style="stroke-width:1.00598" />
</svg>
