<?xml version="1.0" encoding="UTF-8" standalone="no"?>
<svg
   viewBox="0 0 140 79.999999"
   version="1.1"
   id="svg14"
   width="140"
   height="80"
   xmlns="http://www.w3.org/2000/svg"
   xmlns:svg="http://www.w3.org/2000/svg">
  <defs
     id="defs18" />
  <path
     fill="#0074bd"
     d="m 27.187568,60.653954 c 0,0 -2.949521,1.716364 2.102568,2.296567 6.119989,0.698761 9.248241,0.598167 15.991545,-0.676306 0,0 1.777437,1.11101 4.252736,2.073826 C 34.413178,70.82639 15.311344,63.972614 27.187568,60.653954 Z M 25.33828,52.19788 c 0,0 -3.308782,2.451048 1.7469,2.97377 6.538526,0.674511 11.700189,0.730196 20.638569,-0.990657 0,0 1.233158,1.253816 3.175855,1.937307 -18.279132,5.347581 -38.639275,0.421233 -25.561324,-3.92042 z"
     id="path2"
     style="stroke-width:0.898152" />
  <path
     fill="#ea2d2e"
     d="m 40.91488,37.853539 c 3.728218,4.291357 -0.977186,8.149805 -0.977186,8.149805 0,0 9.460205,-4.883236 5.115858,-11.000529 -4.058736,-5.702349 -7.169028,-8.534214 9.673964,-18.302484 8.57e-4,0 -26.439714,6.601397 -13.812636,21.153208 z"
     id="path4"
     style="stroke-width:0.898152" />
  <path
     fill="#0074bd"
     d="m 60.913967,66.908664 c 0,0 2.184299,1.800789 -2.405244,3.192921 -8.726416,2.643253 -36.324744,3.440809 -43.990445,0.105084 -2.753728,-1.19903 2.413327,-2.862401 4.038078,-3.211781 1.694806,-0.367343 2.663011,-0.299982 2.663011,-0.299982 -3.064484,-2.158253 -19.8086825,4.238365 -8.504574,6.073284 30.828072,4.996404 56.194497,-2.250762 48.199174,-5.859526 z M 28.607543,43.436434 c 0,0 -14.037172,3.334828 -4.970358,4.54733 3.829708,0.511944 11.458587,0.394287 18.570132,-0.202084 5.810126,-0.487695 11.640911,-1.530446 11.640911,-1.530446 0,0 -2.046882,0.87839 -3.529727,1.889705 -14.257219,3.749773 -41.7935764,2.002873 -33.86561,-1.830428 6.702886,-3.243216 12.154652,-2.874077 12.154652,-2.874077 z m 25.182305,14.073997 c 14.491636,-7.528286 7.790546,-14.763775 3.113883,-13.789283 -1.143344,0.238907 -1.657086,0.445482 -1.657086,0.445482 0,0 0.426622,-0.668223 1.23765,-0.954732 9.252733,-3.251301 16.366971,9.59313 -2.983651,14.680246 0,0 0.221843,-0.201185 0.289204,-0.381713 z"
     id="path6"
     style="stroke-width:0.898152" />
  <path
     fill="#ea2d2e"
     d="m 45.054449,0.92344216 c 0,0 8.024963,8.02855524 -7.612711,20.37181984 -12.539959,9.903892 -2.859707,15.549655 -0.0054,22.002857 C 30.116433,36.69313 24.747298,30.878513 28.348876,25.468063 33.638076,17.526627 48.291379,13.674466 45.054449,0.92344216 Z"
     id="path8"
     style="stroke-width:0.898152" />
  <path
     fill="#0074bd"
     d="m 30.032905,77.918177 c 13.906941,0.889168 35.269419,-0.49488 35.775076,-7.075618 0,0 -0.971796,2.494159 -11.49541,4.47368 -11.871735,2.234595 -26.516057,1.975031 -35.199363,0.541584 0,0 1.778335,1.472965 10.919697,2.060354 z"
     id="path10"
     style="stroke-width:0.898152" />
  <path
     fill="#ea2d2e"
     d="m 126.29429,47.295317 h -0.42394 v -0.237112 h 1.14066 v 0.237112 h -0.42213 v 1.182862 h -0.29549 z m 2.2768,0.05928 h -0.005 l -0.42033,1.123585 h -0.194 l -0.41764,-1.123585 h -0.004 v 1.123585 h -0.28023 v -1.419977 h 0.41047 l 0.38709,1.00503 0.388,-1.00503 h 0.40762 v 1.419974 h -0.27198 z M 88.882046,60.638224 c -1.311297,1.137057 -2.69804,1.776539 -3.943773,1.776539 -1.772946,0 -2.734864,-1.065205 -2.734864,-2.77079 0,-1.845698 1.029279,-3.197411 5.15358,-3.197411 h 1.524159 v 4.191662 z m 3.62044,4.084783 V 52.079758 c 0,-3.23244 -1.843901,-5.364645 -6.28435,-5.364645 -2.592058,0 -4.864376,0.641278 -6.711868,1.456798 l 0.531704,2.239086 c 1.455001,-0.534399 3.336625,-1.030177 5.183218,-1.030177 2.559725,0 3.659958,1.030177 3.659958,3.162383 v 1.597807 h -1.278964 c -6.21609,0 -9.02101,2.411531 -9.02101,6.038257 0,3.124661 1.848391,4.900302 5.328719,4.900302 2.236391,0 3.907847,-0.923298 5.467932,-2.275012 l 0.283815,1.919345 h 2.840846 z m 12.081744,0 h -4.51483 l -5.434712,-17.68366 h 3.943776 l 3.373376,10.866706 0.74992,3.264773 c 1.70284,-4.722469 2.90995,-9.516789 3.51351,-14.130581 h 3.83598 c -1.02658,5.820905 -2.87676,12.213033 -5.46702,17.682762 z m 17.3235,-4.084783 c -1.3158,1.137057 -2.70344,1.776539 -3.94467,1.776539 -1.77476,0 -2.73577,-1.065205 -2.73577,-2.77079 0,-1.845698 1.03198,-3.197411 5.15179,-3.197411 h 1.52774 v 4.191662 z m 3.62223,4.084783 V 52.079758 c 0,-3.23244 -1.84929,-5.364645 -6.28614,-5.364645 -2.59476,0 -4.86618,0.641278 -6.71367,1.456798 l 0.53259,2.239086 c 1.45501,-0.534399 3.33933,-1.030177 5.18592,-1.030177 2.55614,0 3.65907,1.030177 3.65907,3.162383 v 1.597807 h -1.27897 c -6.21789,0 -9.02192,2.411531 -9.02192,6.038257 0,3.124661 1.84661,4.900302 5.32604,4.900302 2.23728,0 3.90604,-0.923298 5.47062,-2.275012 l 0.28561,1.919345 h 2.84085 z m -50.918605,3.005207 c -1.030177,1.507991 -2.698938,2.701631 -4.523977,3.374345 l -1.786419,-2.10616 c 1.389436,-0.71313 2.579485,-1.863659 3.133642,-2.936048 0.477816,-0.954733 0.676306,-2.182504 0.676306,-5.120348 V 40.74781 h 3.847672 v 19.914662 c 0,3.929402 -0.312557,5.518227 -1.347224,7.065739 z"
     id="path12"
     style="stroke-width:0.898152" />
</svg>
