<?xml version="1.0" encoding="UTF-8" standalone="no"?>
<svg
   viewBox="0 0 128 40"
   version="1.1"
   id="svg217"
   width="128"
   height="40"
   xmlns="http://www.w3.org/2000/svg"
   xmlns:svg="http://www.w3.org/2000/svg">
  <defs
     id="defs221" />
  <g
     id="g229"
     transform="matrix(1.0011513,0,0,1.0011513,-0.07168088,-44.074648)">
    <path
       fill="#83cd29"
       d="m 114.325,80.749 c -0.29,0 -0.578,-0.076 -0.832,-0.224 l -2.65,-1.568 c -0.396,-0.221 -0.203,-0.3 -0.072,-0.345 0.528,-0.184 0.635,-0.227 1.198,-0.545 0.059,-0.033 0.136,-0.021 0.197,0.015 l 2.035,1.209 a 0.261,0.261 0 0 0 0.246,0 l 7.937,-4.581 a 0.248,0.248 0 0 0 0.122,-0.215 v -9.16 a 0.256,0.256 0 0 0 -0.123,-0.219 l -7.934,-4.577 a 0.254,0.254 0 0 0 -0.245,0 l -7.933,4.578 a 0.259,0.259 0 0 0 -0.125,0.218 v 9.16 c 0,0.088 0.049,0.171 0.125,0.212 l 2.174,1.257 c 1.18,0.589 1.903,-0.105 1.903,-0.803 v -9.045 c 0,-0.127 0.103,-0.228 0.23,-0.228 h 1.007 c 0.125,0 0.229,0.101 0.229,0.228 v 9.045 c 0,1.574 -0.857,2.477 -2.35,2.477 -0.459,0 -0.82,0 -1.828,-0.496 l -2.081,-1.198 a 1.676,1.676 0 0 1 -0.832,-1.448 v -9.16 c 0,-0.595 0.317,-1.15 0.832,-1.446 l 7.937,-4.587 a 1.743,1.743 0 0 1 1.667,0 l 7.937,4.587 c 0.514,0.297 0.833,0.852 0.833,1.446 v 9.16 a 1.68,1.68 0 0 1 -0.833,1.448 l -7.937,4.582 a 1.651,1.651 0 0 1 -0.834,0.223 m 2.453,-6.311 c -3.475,0 -4.202,-1.595 -4.202,-2.932 a 0.23,0.23 0 0 1 0.23,-0.229 h 1.026 a 0.23,0.23 0 0 1 0.228,0.194 c 0.154,1.045 0.617,1.572 2.718,1.572 1.671,0 2.383,-0.378 2.383,-1.266 0,-0.512 -0.202,-0.891 -2.8,-1.146 -2.172,-0.215 -3.515,-0.694 -3.515,-2.433 0,-1.601 1.35,-2.557 3.612,-2.557 2.543,0 3.801,0.883 3.96,2.777 a 0.235,0.235 0 0 1 -0.06,0.176 0.236,0.236 0 0 1 -0.168,0.073 h -1.031 a 0.228,0.228 0 0 1 -0.223,-0.179 c -0.248,-1.1 -0.848,-1.451 -2.479,-1.451 -1.825,0 -2.037,0.637 -2.037,1.112 0,0.577 0.25,0.745 2.715,1.071 2.439,0.323 3.598,0.779 3.598,2.494 10e-4,1.733 -1.441,2.724 -3.955,2.724"
       id="path205" />
    <path
       fill="#404137"
       d="m 97.982,68.43 c 0.313,-0.183 0.506,-0.517 0.506,-0.88 v -2.354 c 0,-0.362 -0.192,-0.696 -0.506,-0.879 l -8.364,-4.856 a 1.017,1.017 0 0 0 -1.019,-0.002 l -8.416,4.859 a 1.018,1.018 0 0 0 -0.508,0.88 v 9.716 c 0,0.365 0.196,0.703 0.514,0.884 l 8.363,4.765 c 0.308,0.177 0.686,0.178 0.997,0.006 l 5.058,-2.812 a 0.508,0.508 0 0 0 0.006,-0.885 l -8.468,-4.86 a 0.507,0.507 0 0 1 -0.256,-0.44 v -3.046 c 0,-0.182 0.097,-0.349 0.254,-0.439 l 2.637,-1.52 a 0.505,0.505 0 0 1 0.507,0 l 2.637,1.52 a 0.507,0.507 0 0 1 0.255,0.439 v 2.396 a 0.507,0.507 0 0 0 0.764,0.44 l 5.039,-2.932"
       id="path207" />
    <path
       fill="#83cd29"
       d="m 88.984,67.974 a 0.2,0.2 0 0 1 0.195,0 l 1.615,0.933 c 0.06,0.035 0.097,0.1 0.097,0.169 v 1.865 c 0,0.07 -0.037,0.134 -0.097,0.169 l -1.615,0.932 a 0.194,0.194 0 0 1 -0.195,0 L 87.37,71.11 a 0.194,0.194 0 0 1 -0.098,-0.169 v -1.865 c 0,-0.069 0.037,-0.134 0.098,-0.169 l 1.614,-0.933"
       id="path209" />
    <path
       fill="#404137"
       d="m 67.083,71.854 c 0,0.09 -0.048,0.174 -0.127,0.22 l -2.89,1.666 a 0.251,0.251 0 0 1 -0.254,0 l -2.89,-1.666 a 0.255,0.255 0 0 1 -0.127,-0.22 v -3.338 c 0,-0.09 0.049,-0.175 0.127,-0.221 l 2.89,-1.668 a 0.248,0.248 0 0 1 0.255,0 l 2.891,1.668 a 0.258,0.258 0 0 1 0.126,0.221 v 3.338 z m 0.781,-24.716 a 0.511,0.511 0 0 0 -0.756,0.444 v 12.915 a 0.359,0.359 0 0 1 -0.177,0.308 0.359,0.359 0 0 1 -0.356,0 L 64.467,59.59 a 1.017,1.017 0 0 0 -1.015,0 l -8.418,4.858 a 1.018,1.018 0 0 0 -0.509,0.881 v 9.719 c 0,0.363 0.194,0.698 0.508,0.881 l 8.418,4.861 c 0.314,0.182 0.702,0.182 1.017,0 l 8.42,-4.861 a 1.02,1.02 0 0 0 0.508,-0.881 V 50.821 c 0,-0.368 -0.2,-0.708 -0.521,-0.888 l -5.011,-2.795"
       id="path211" />
    <path
       fill="#83cd29"
       d="m 38.238,59.407 a 1.014,1.014 0 0 1 1.016,0 l 8.418,4.857 c 0.314,0.182 0.508,0.518 0.508,0.881 v 9.722 c 0,0.363 -0.194,0.699 -0.508,0.881 l -8.417,4.861 a 1.02,1.02 0 0 1 -1.017,0 l -8.415,-4.861 a 1.02,1.02 0 0 1 -0.508,-0.881 v -9.723 c 0,-0.362 0.194,-0.698 0.508,-0.88 l 8.415,-4.857"
       id="path213" />
    <path
       fill="#404137"
       d="m 22.93,65.064 c 0,-0.366 -0.192,-0.702 -0.508,-0.883 l -8.415,-4.843 a 0.99,0.99 0 0 0 -0.464,-0.133 h -0.087 a 0.993,0.993 0 0 0 -0.464,0.133 l -8.416,4.843 a 1.02,1.02 0 0 0 -0.509,0.883 l 0.018,13.04 c 0,0.182 0.095,0.351 0.254,0.439 a 0.487,0.487 0 0 0 0.505,0 l 5,-2.864 c 0.316,-0.188 0.509,-0.519 0.509,-0.882 v -6.092 c 0,-0.364 0.192,-0.699 0.507,-0.881 l 2.13,-1.226 a 0.994,0.994 0 0 1 0.508,-0.137 c 0.174,0 0.352,0.044 0.507,0.137 l 2.128,1.226 c 0.315,0.182 0.509,0.517 0.509,0.881 v 6.092 c 0,0.363 0.195,0.696 0.509,0.882 l 5,2.864 a 0.508,0.508 0 0 0 0.76,-0.439 l 0.019,-13.04"
       id="path215" />
  </g>
</svg>
