<?xml version="1.0" encoding="UTF-8" standalone="no"?>
<svg
   viewBox="0 0 130 64"
   version="1.1"
   id="svg382"
   width="130"
   height="64"
   xmlns:xlink="http://www.w3.org/1999/xlink"
   xmlns="http://www.w3.org/2000/svg"
   xmlns:svg="http://www.w3.org/2000/svg">
  <defs
     id="defs353">
    <path
       id="php-original-a"
       d="m 64.026,96.076 c 33.676,0 60.976,-14.361 60.976,-32.076 0,-17.715 -27.3,-32.075 -60.976,-32.075 -33.676,0 -60.975,14.36 -60.975,32.075 0,17.715 27.3,32.076 60.975,32.076" />
  </defs>
  <defs
     id="defs356">
    <path
       id="php-original-c"
       d="m 2.998,31.924 h 122.004 v 64.1 H 2.998 Z" />
  </defs>
  <clipPath
     id="php-original-b">
    <use
       xlink:href="#php-original-a"
       overflow="visible"
       id="use358" />
  </clipPath>
  <clipPath
     id="php-original-d"
     clip-path="url(#php-original-b)">
    <use
       xlink:href="#php-original-c"
       overflow="visible"
       id="use361" />
  </clipPath>
  <g
     id="g391"
     transform="translate(5,2)">
    <path
       fill="#6181b6"
       d="M 59.999488,60 C 93.136269,60 120,46.567994 120,30 120,13.432006 93.137293,0 59.999488,0 26.861683,0 0,13.432006 0,30 0,46.567994 26.862707,60 59.999488,60 Z"
       id="path376"
       style="stroke-width:1.01713" />
    <path
       fill="#ffffff"
       d="m 70.463,39.292 2.906,-14.958 c 0.656,-3.377 0.11,-5.896 -1.62,-7.486 -1.677,-1.54 -4.523,-2.288 -8.703,-2.288 h -5.033 l 1.44,-7.412 A 0.955,0.955 0 0 0 58.518,6.013 H 51.571 A 0.954,0.954 0 0 0 50.635,6.784 L 47.549,22.665 C 47.269,20.878 46.576,19.342 45.47,18.074 43.432,15.742 40.209,14.559 35.89,14.559 H 22.423 a 0.951,0.951 0 0 0 -0.935,0.771 l -6.247,32.144 a 0.953,0.953 0 0 0 0.935,1.134 h 7.002 a 0.953,0.953 0 0 0 0.936,-0.771 l 1.511,-7.775 h 5.213 c 2.735,0 5.032,-0.296 6.827,-0.881 1.834,-0.596 3.522,-1.607 5.011,-3.001 a 15.364,15.364 0 0 0 2.96,-3.676 l -1.248,6.424 a 0.95,0.95 0 0 0 0.935,1.134 h 6.947 a 0.954,0.954 0 0 0 0.936,-0.771 l 3.429,-17.645 h 4.767 c 2.031,0 2.626,0.404 2.787,0.578 0.147,0.159 0.452,0.718 0.11,2.48 l -2.764,14.223 a 0.95,0.95 0 0 0 0.935,1.134 h 7.058 a 0.951,0.951 0 0 0 0.935,-0.769 z M 38.255,26.932 c -0.437,2.242 -1.259,3.842 -2.444,4.755 -1.205,0.927 -3.132,1.397 -5.727,1.397 H 26.98 l 2.244,-11.548 h 4.012 c 2.948,0 4.136,0.63 4.612,1.158 0.662,0.734 0.802,2.199 0.407,4.238 z m 61.916,-8.858 C 98.133,15.742 94.91,14.559 90.59,14.559 H 77.126 A 0.952,0.952 0 0 0 76.19,15.33 l -6.248,32.144 a 0.953,0.953 0 0 0 0.935,1.134 h 7.003 a 0.953,0.953 0 0 0 0.935,-0.771 l 1.512,-7.775 h 5.212 c 2.735,0 5.033,-0.296 6.827,-0.881 1.835,-0.596 3.522,-1.607 5.011,-3.001 1.241,-1.141 2.264,-2.421 3.037,-3.806 a 15.404,15.404 0 0 0 1.65,-4.588 c 0.797,-4.094 0.16,-7.363 -1.893,-9.712 z m -7.262,8.858 c -0.437,2.242 -1.259,3.842 -2.444,4.755 -1.204,0.927 -3.131,1.397 -5.727,1.397 h -3.104 l 2.245,-11.548 h 4.012 c 2.948,0 4.136,0.63 4.612,1.158 0.662,0.734 0.801,2.199 0.406,4.238 z"
       id="path378" />
    <path
       fill="#000004"
       d="m 33.237,20.584 c 2.66,0 4.434,0.491 5.32,1.474 0.885,0.982 1.097,2.668 0.633,5.057 -0.484,2.488 -1.416,4.264 -2.798,5.328 -1.382,1.063 -3.485,1.595 -6.308,1.595 h -4.26 l 2.614,-13.453 h 4.799 z M 16.176,47.656 h 7.002 l 1.661,-8.546 h 5.998 c 2.646,0 4.823,-0.277 6.532,-0.834 1.709,-0.556 3.263,-1.488 4.661,-2.797 a 14.369,14.369 0 0 0 2.85,-3.569 c 0.727,-1.3 1.242,-2.734 1.547,-4.305 0.741,-3.811 0.182,-6.778 -1.676,-8.904 -1.858,-2.126 -4.812,-3.189 -8.862,-3.189 H 22.423 Z M 51.57,6.965 h 6.947 l -1.661,8.546 h 6.189 c 3.894,0 6.58,0.68 8.059,2.037 1.479,1.359 1.921,3.561 1.33,6.603 L 69.528,39.11 H 62.47 l 2.763,-14.223 c 0.314,-1.618 0.199,-2.722 -0.347,-3.311 -0.546,-0.587 -1.708,-0.882 -3.485,-0.882 H 55.848 L 52.27,39.11 h -6.947 z m 36.321,13.619 c 2.66,0 4.434,0.491 5.319,1.474 0.887,0.982 1.097,2.668 0.634,5.057 -0.484,2.488 -1.417,4.264 -2.799,5.328 -1.382,1.063 -3.484,1.595 -6.308,1.595 h -4.259 l 2.614,-13.453 h 4.799 z m -17.06,27.072 h 7.002 l 1.661,-8.546 h 5.997 c 2.646,0 4.823,-0.277 6.532,-0.834 1.71,-0.556 3.264,-1.488 4.661,-2.797 a 14.35,14.35 0 0 0 2.851,-3.569 c 0.726,-1.3 1.242,-2.734 1.547,-4.305 0.74,-3.811 0.182,-6.778 -1.676,-8.904 -1.858,-2.126 -4.812,-3.189 -8.863,-3.189 H 77.078 Z"
       id="path380" />
  </g>
</svg>
