<?xml version="1.0" encoding="UTF-8" standalone="no"?>
<svg
   viewBox="0 0 182.455 85.214996"
   version="1.1"
   id="svg467"
   width="182.455"
   height="85.214996"
   xmlns="http://www.w3.org/2000/svg"
   xmlns:svg="http://www.w3.org/2000/svg">
  <defs
     id="defs471" />
  <path
     fill="#d91404"
     d="M 65.136537,50.930446 C 53.098502,58.74691 41.170413,66.492964 28.927396,74.440861 l 54.706905,7.525435 z M 88.811029,16.342169 c -1.616563,2.44464 -3.235921,4.888341 -4.849688,7.334859 l -16.62311,25.211524 c -0.308405,0.469401 -0.70812,0.841166 -0.273931,1.562166 5.351894,8.902658 10.659997,17.83348 15.981144,26.753975 0.839494,1.409142 1.689237,2.812651 2.775642,4.164525 L 89.04769,16.412579 Z M 15.764755,44.100662 c 0.250637,0.239395 0.875833,0.377399 1.165603,0.233762 5.132935,-2.542275 10.298483,-5.027284 15.31961,-7.778912 1.636129,-0.895617 2.893974,-2.503785 4.305554,-3.806842 4.669677,-4.317339 9.334884,-8.639586 13.995613,-12.966731 0.286043,-0.265681 0.622401,-0.521974 0.79384,-0.857126 1.67433,-3.298011 3.318845,-6.611042 5.022991,-10.0217096 -2.032117,-0.7670011 -3.958016,-1.520859 -5.907209,-2.2061843 -0.264614,-0.092941 -0.680168,0.092003 -0.969006,0.2534765 -4.5124,2.5403978 -9.109587,4.9446694 -13.479431,7.7150734 -2.186786,1.385672 -3.968265,3.427566 -5.904414,5.207534 -3.118522,2.868978 -6.23518,5.744528 -9.309911,8.664202 -0.820334,0.783046 -1.555866,1.651609 -2.194239,2.591093 -2.103861,3.084903 -4.1425,6.21393 -6.277108,9.433081 1.194486,1.244852 2.278095,2.433375 3.438107,3.539283 z m 18.75865,-4.218036 c -2.552026,10.868509 -5.09194,21.675057 -7.713846,32.837411 L 63.055038,49.188968 Z M 54.869734,21.631379 65.323816,47.253159 C 72.147854,36.9254 78.835859,26.801361 85.675735,16.446376 Z M 34.952003,37.659543 62.915278,46.806289 C 59.411017,38.204048 56.02695,29.903162 52.572071,21.425781 Z M 16.151426,50.438514 6.3644662,74.010889 25.003854,73.456058 Z m 9.074181,17.5509 0.231071,-0.0507 c 2.237099,-9.376753 4.507741,-18.688728 6.79329,-28.430675 l -14.95437,7.830546 c 2.548299,6.676759 5.267106,13.717773 7.930009,20.650824 z M 81.914315,14.926456 C 78.937417,14.13223 75.963315,13.334248 72.983621,12.545655 68.704157,11.412521 64.420964,10.291591 60.143362,9.1471919 59.609477,9.004494 59.221875,8.9115527 58.90788,9.5602647 c -1.511277,3.1205773 -3.071004,6.2186233 -4.606506,9.3269963 -0.04752,0.0967 -0.0382,0.222496 -0.07453,0.46189 L 81.908725,15.122666 Z M 64.647376,7.8272365 88.906998,14.589426 84.898668,3.0815931 64.683714,7.5981689 Z M 71.991322,82.328674 52.0885,79.591128 c -8.267297,-1.136889 -16.519687,-2.388312 -24.805619,-3.350584 -3.00485,-0.348296 -6.08983,-0.02722 -9.136608,0.02441 -2.503575,0.04319 -5.007151,0.138942 -7.509795,0.218741 -0.258091,0.0075 -0.515251,0.06008 -0.7714781,0.338907 C 30.558867,78.7509 51.254596,80.67826 71.947531,82.607498 Z M 6.7725667,66.815912 c 2.6684932,-6.234583 5.3220783,-12.47386 7.9998893,-18.702811 0.26834,-0.62618 0.248773,-1.04958 -0.275794,-1.551839 -1.120879,-1.074928 -2.160697,-2.232471 -3.38593,-3.514874 l -4.8832311,24.287743 0.1798252,0.08637 C 6.531247,67.219598 6.6812566,67.031837 6.7725667,66.815912 Z M 59.333683,6.1815169 C 63.831175,5.0117697 68.393889,4.0992543 72.929581,3.0787767 73.222147,3.0121218 73.509122,2.9144864 73.797959,2.830933 l -0.04379,-0.2234348 -19.4882,2.6408496 c 1.830863,0.8064308 3.24058,1.4082028 5.067715,0.9331691 z M 110.28569,62.916129 v 8.02394 h -4.40152 V 50.02638 h 6.0479 c 2.81944,0 4.90652,0.517279 6.26033,1.551839 1.35382,1.03456 2.03119,2.606114 2.03119,4.712785 0,1.23077 -0.33636,2.325413 -1.00907,3.282991 -0.67178,0.958516 -1.62216,1.710496 -2.85391,2.254063 l 6.10567,9.111072 h -4.88416 l -4.95404,-8.02394 h -2.34239 z m 0,-3.604999 h 1.41996 c 1.39016,0 2.41786,-0.2347 3.08032,-0.701285 0.66154,-0.467523 0.99323,-1.201666 0.99323,-2.202429 0,-0.992314 -0.33821,-1.697354 -1.01559,-2.116998 -0.67644,-0.419645 -1.72464,-0.629936 -3.14368,-0.629936 h -1.33517 v 0.13602 5.514628 z m 25.69543,11.628939 -0.58141,-2.04565 h -0.22734 c -0.46401,0.74447 -1.12181,1.318078 -1.97249,1.723641 -0.85253,0.405562 -1.8234,0.607404 -2.91074,0.607404 -1.86534,0 -3.2704,-0.502259 -4.21704,-1.508654 -0.94664,-1.006396 -1.41904,-2.45309 -1.41904,-4.34102 V 54.947579 h 4.32979 v 9.341078 c 0,1.153788 0.20404,2.019363 0.61121,2.596726 0.40624,0.577363 1.05379,0.864637 1.94361,0.864637 1.21218,0 2.08709,-0.408379 2.62656,-1.22232 0.53948,-0.815819 0.80968,-2.166755 0.80968,-4.054685 v -7.524497 h 4.32978 v 15.992489 h -3.32257 z m 16.69579,-16.293845 c 1.87372,0 3.3412,0.737898 4.40245,2.210878 1.05938,1.47298 1.5886,3.492343 1.5886,6.058088 0,2.64085 -0.54692,4.686499 -1.63892,6.13507 -1.09385,1.450449 -2.58184,2.174266 -4.46581,2.174266 -1.8644,0 -3.3263,-0.682509 -4.38662,-2.046589 h -0.29815 l -0.72302,1.760254 h -3.30861 V 48.682015 h 4.32978 v 5.178431 c 0,0.658101 -0.0578,1.711436 -0.17144,3.161885 h 0.17144 c 1.01187,-1.58282 2.5129,-2.376107 4.5003,-2.376107 z m -1.39202,3.491404 c -1.0687,0 -1.8495,0.331397 -2.34145,0.994191 -0.49196,0.663733 -0.74912,1.757437 -0.76683,3.283929 v 0.471278 c 0,1.717069 0.25251,2.946899 0.75844,3.691369 0.50687,0.743531 1.30908,1.115297 2.4076,1.115297 0.88888,0 1.59607,-0.413073 2.12157,-1.237341 0.5255,-0.824268 0.78825,-2.024057 0.78825,-3.597489 0,-1.573432 -0.26555,-2.754444 -0.79571,-3.54116 -0.52922,-0.786716 -1.25318,-1.180074 -2.17187,-1.180074 z m 8.40519,-3.190049 h 4.74161 l 2.99553,8.997477 c 0.2553,0.782022 0.43139,1.706742 0.52457,2.775098 h 0.0857 c 0.10343,-0.981987 0.30655,-1.907645 0.60936,-2.775098 l 2.9387,-8.997477 h 4.64195 l -6.71502,18.038139 c -0.61495,1.668251 -1.49264,2.917796 -2.63216,3.747697 -1.14137,0.829901 -2.47283,1.243912 -3.99715,1.243912 -0.74819,0 -1.48146,-0.08074 -2.19983,-0.243149 v -3.461363 c 0.5588,0.127363 1.13031,0.18942 1.70322,0.184944 0.76589,0 1.4358,-0.235639 2.00882,-0.707856 0.57302,-0.471279 1.02026,-1.18383 1.34077,-2.137652 l 0.2553,-0.787655 z"
     id="path465"
     style="stroke-width:0.935263" />
</svg>
