<?xml version="1.0" encoding="UTF-8" standalone="no"?>
<svg
   viewBox="0 0 148 43.999999"
   version="1.1"
   id="svg511"
   width="148"
   height="44"
   xmlns="http://www.w3.org/2000/svg"
   xmlns:svg="http://www.w3.org/2000/svg">
  <defs
     id="defs515" />
  <g
     id="g520"
     transform="matrix(1.1111111,0,0,1.1577128,4.0000007,2.0000001)">
    <path
       fill="#f05138"
       d="M 36.35,8.56 A 11.24,11.24 0 0 0 36.12,6.3 7.42,7.42 0 0 0 33.96,2.3 6.83,6.83 0 0 0 32,0.95 8,8 0 0 0 29.76,0.22 C 28.99,0.07 28.14,0.07 27.37,0 H 8.35 A 13.37,13.37 0 0 0 6.58,0.15 6.41,6.41 0 0 0 4.88,0.59 C 4.73,0.66 4.49,0.74 4.34,0.81 A 9.86,9.86 0 0 0 2.87,1.76 C 2.72,1.91 2.56,1.98 2.41,2.12 A 6.47,6.47 0 0 0 1,3.94 6.77,6.77 0 0 0 0.23,6.13 22.44,22.44 0 0 0 0,8.38 v 17.43 a 11.24,11.24 0 0 0 0.23,2.26 7.42,7.42 0 0 0 2.16,4 6.83,6.83 0 0 0 1.93,1.31 8,8 0 0 0 2.24,0.73 c 0.77,0.15 1.62,0.15 2.39,0.22 h 18.46 a 13.26,13.26 0 0 0 2.39,-0.22 8,8 0 0 0 2.2,-0.72 8.78,8.78 0 0 0 2,-1.31 6.47,6.47 0 0 0 1.39,-1.82 6.77,6.77 0 0 0 0.77,-2.19 22.44,22.44 0 0 0 0.23,-2.26 V 8.56 Z"
       id="path505" />
    <path
       fill="#fefefe"
       d="m 24.3,26.56 c -3.24,1.77 -7.69,1.95 -12.16,0.14 a 18.77,18.77 0 0 1 -8.57,-6.94 14.61,14.61 0 0 0 3.17,1.8 c 4.62,2 9.25,1.91 12.5,0 a 64.45,64.45 0 0 1 -11.5,-11.28 12.56,12.56 0 0 1 -1.54,-2 88.68,88.68 0 0 0 11.18,8 78.59,78.59 0 0 1 -7.87,-9.33 77.67,77.67 0 0 0 13,10.06 l 0.5,0.28 a 9.38,9.38 0 0 0 0.35,-1 c 1.08,-3.72 -0.15,-7.95 -2.85,-11.45 6.25,3.57 9.95,10.28 8.41,15.9 0,0.15 -0.08,0.3 -0.13,0.45 l 0.05,0.06 c 3.09,3.65 2.24,7.51 1.85,6.78 C 29,24.98 25.87,25.92 24.3,26.56 Z"
       id="path507" />
    <path
       fill="#221f20"
       d="m 118.34,14.87 h -8.95 v -1.09 c 0,-0.87 0.08,-1.75 0.15,-2.62 a 5.73,5.73 0 0 1 0.62,-2.19 4.09,4.09 0 0 1 1.31,-1.46 4.49,4.49 0 0 1 2.31,-0.58 7.49,7.49 0 0 1 1.47,0.15 c 0.39,0.15 0.69,0.22 1,0.36 l 0.62,-1.46 a 7.29,7.29 0 0 0 -1.23,-0.44 6,6 0 0 0 -1.7,-0.22 6.59,6.59 0 0 0 -3.09,0.66 6.12,6.12 0 0 0 -2.08,1.82 8.75,8.75 0 0 0 -1.08,2.7 15.55,15.55 0 0 0 -0.31,3.35 v 1.09 h -2.93 v 1.46 h 2.93 v 17.65 h 2 V 16.33 h 8.95 v 12.1 a 11.64,11.64 0 0 0 0.23,2.41 4.69,4.69 0 0 0 0.69,1.9 3.2,3.2 0 0 0 1.39,1.24 5.41,5.41 0 0 0 2.31,0.44 6.87,6.87 0 0 0 2.7,-0.44 l -0.21,-1.42 a 8.39,8.39 0 0 1 -0.93,0.22 7,7 0 0 1 -1.31,0.07 2.51,2.51 0 0 1 -2.24,-1 6,6 0 0 1 -0.62,-2.92 V 16.4 H 126 v -1.45 h -5.63 v -4.23 l -2,0.58 z m 0.08,0 z m 0.08,1.46 z m -70,14.8 a 9.51,9.51 0 0 0 2.78,1.24 12.09,12.09 0 0 0 3.32,0.51 7.31,7.31 0 0 0 4.94,-1.53 5.2,5.2 0 0 0 1.77,-4 A 5.39,5.39 0 0 0 60,23.62 11.66,11.66 0 0 0 55.68,21 a 15.12,15.12 0 0 1 -5.24,-2.84 5.78,5.78 0 0 1 -1.93,-4.52 6.33,6.33 0 0 1 0.62,-2.7 6.56,6.56 0 0 1 1.7,-2.11 7,7 0 0 1 2.55,-1.39 9.4,9.4 0 0 1 3.24,-0.51 15,15 0 0 1 3.39,0.36 9.8,9.8 0 0 1 2.08,0.8 l -0.77,1.6 a 7.23,7.23 0 0 0 -1.85,-0.8 9.27,9.27 0 0 0 -3,-0.44 8,8 0 0 0 -2.85,0.44 5.58,5.58 0 0 0 -1.92,1.17 5.12,5.12 0 0 0 -1,1.6 4.3,4.3 0 0 0 -0.31,1.68 4.75,4.75 0 0 0 1.39,3.57 14.15,14.15 0 0 0 4.4,2.48 18.59,18.59 0 0 1 3,1.46 13.23,13.23 0 0 1 2.24,1.71 5.86,5.86 0 0 1 1.31,2 7.25,7.25 0 0 1 0.46,2.62 7.44,7.44 0 0 1 -0.54,2.84 6.38,6.38 0 0 1 -1.65,2.35 8.49,8.49 0 0 1 -2.78,1.6 12.16,12.16 0 0 1 -3.86,0.58 15.82,15.82 0 0 1 -1.85,-0.15 16.6,16.6 0 0 1 -1.85,-0.36 11.43,11.43 0 0 1 -1.7,-0.58 6.86,6.86 0 0 1 -1.31,-0.66 z M 67,14.95 70.32,25.81 c 0.31,1.09 0.62,2.19 0.93,3.14 0.31,0.95 0.54,2 0.77,2.84 h 0.15 c 0.23,-0.87 0.54,-1.82 0.85,-2.84 0.31,-1.02 0.69,-2 1.08,-3.14 L 78,14.95 h 1.85 l 3.78,10.71 c 0.39,1.17 0.77,2.26 1.08,3.28 0.31,1.02 0.62,2 0.85,2.84 h 0.15 c 0.23,-0.95 0.46,-1.9 0.77,-2.84 0.31,-0.94 0.62,-2 1,-3.21 L 91,14.95 h 2 l -6.63,19.1 H 84.79 L 81,23.4 q -0.58,-1.75 -1.16,-3.28 c -0.31,-1 -0.62,-2.11 -0.85,-3.21 h -0.08 a 33.72,33.72 0 0 1 -1,3.28 q -0.58,1.53 -1.16,3.28 l -3.92,10.58 h -1.7 L 65,14.95 Z m 30.31,0 h 2 v 19.1 h -2 z M 96.54,9.12 A 1.66,1.66 0 0 1 98.24,7.44 1.8,1.8 0 0 1 100,9.11 1.51,1.51 0 0 1 99.46,10.28 1.81,1.81 0 0 1 98.23,10.72 2,2 0 0 1 97,10.28 1.73,1.73 0 0 1 96.51,9.11 Z"
       id="path509" />
  </g>
</svg>
