<svg width="342" height="325" viewBox="0 0 342 325" fill="none" xmlns="http://www.w3.org/2000/svg">
<path opacity="0.34" d="M52.8363 302.656C79.8036 302.656 101.665 298.592 101.665 293.579C101.665 288.566 79.8036 284.502 52.8363 284.502C25.8691 284.502 4.00781 288.566 4.00781 293.579C4.00781 298.592 25.8691 302.656 52.8363 302.656Z" fill="#575FA8"/>
<path d="M58.1797 277.202L57.1777 292.69H86.3012C86.3012 292.69 74.4113 285.137 69.1344 282.725L68.5332 277.266H58.1797V277.202Z" fill="#F08789"/>
<path d="M67.1977 154.312L69.1348 281.392H57.6457C57.6457 281.392 44.9543 231.626 51.1664 217.09L40.0781 154.312H67.1977Z" fill="#32388D"/>
<path opacity="0.2" d="M67.1973 154.312H40.1445L51.2328 217.09C49.0953 222.104 49.1621 231.372 50.2309 241.338L68.8672 262.983L67.1973 154.312Z" fill="#020203"/>
<path d="M27.4537 279.233L22.9783 294.722H54.7736C54.7736 294.722 41.3474 287.168 36.0037 284.756L37.0056 279.297H27.4537V279.233Z" fill="#F08789"/>
<path d="M67.9995 152.725L56.7108 216.455L37.6737 281.392H26.2515C26.2515 281.392 29.9253 219.058 41.6815 212.583L32.3968 152.788H67.9995V152.725Z" fill="#32388D"/>
<path opacity="0.2" d="M67.2645 157.104L67.9992 152.725H32.3965L33.198 157.93L67.3313 162.056L67.2645 157.104Z" fill="#020203"/>
<path d="M86.3687 108.735C86.3687 108.735 93.4491 97.8809 104.471 95.4053L100.129 100.356C100.129 100.356 102.2 105.498 99.5944 108.101C96.9894 110.703 92.7811 110.894 92.7811 110.894L89.8421 114.004L86.3687 108.735Z" fill="#F5ABAE"/>
<path d="M58.3805 99.8486L68.066 118.638L87.0363 106.45L91.7789 113.369C91.7789 113.369 75.2801 142.822 67.9992 140.664C60.7184 138.506 54.4395 122.954 54.4395 122.954L58.3805 99.8486Z" fill="white"/>
<path opacity="0.2" d="M67.9992 118.638L58.3137 99.8486L54.4395 122.954C54.4395 122.954 60.7184 138.506 67.9992 140.664C68.1996 140.728 68.3332 140.728 68.5336 140.728L77.284 112.607L67.9992 118.638Z" fill="#020203"/>
<path d="M65.7281 55.4785C65.7281 55.4785 66.8637 65.0635 67.9992 67.4121H64.8598C64.8598 67.4121 65.127 76.6162 63.1231 77.7588C61.7203 78.584 57.6457 77.7588 56.7106 78.8379C55.7754 79.917 54.3727 87.5976 54.3727 87.5976L41.7481 86.582L43.0172 75.8545C43.0172 75.8545 35.9367 67.7929 38.0742 57.8906C40.2117 47.9883 63.8578 46.2744 65.7281 55.4785Z" fill="#F5ABAE"/>
<path opacity="0.2" d="M49.9642 71.4746L40.0115 70.9668C41.481 73.9502 43.0841 75.791 43.0841 75.791L41.815 86.5186L54.4396 87.5342C54.4396 87.5342 55.8423 79.8535 56.7775 78.7744C57.1115 78.3936 57.913 78.2031 58.8482 78.2031C53.972 76.9336 49.5634 71.7285 49.9642 71.4746Z" fill="#020203"/>
<path d="M66.1294 58.6523C66.1294 58.6523 63.4575 60.1758 58.1137 56.8115C58.1137 56.8115 54.5067 62.9687 51.3673 62.1436C51.3673 62.1436 51.2337 66.5234 50.5657 66.8408C49.8977 67.1582 48.5618 63.0957 47.2258 62.8418C45.8899 62.5879 44.4872 63.8574 45.9567 67.666C47.3594 71.4746 49.9645 71.4746 49.9645 71.4746L43.0176 75.8545C43.0176 75.8545 37.5403 74.2041 36.4715 69.8877C36.4715 69.8877 29.5247 63.4766 33.7329 58.9062C33.7329 58.9062 29.1239 55.2246 39.8782 50.7178C39.8782 50.7178 42.4165 41.831 47.4262 45.8935C47.4262 45.8935 56.711 39.292 58.9821 45.1953C58.9821 45.1953 70.9387 44.2432 71.6735 50.4004C72.4083 56.5576 69.536 58.0176 69.536 58.0176C69.536 58.0176 70.204 63.0957 66.8641 63.3496L66.1294 58.6523Z" fill="#212226"/>
<path d="M32.9976 99.0234C32.9976 99.0234 26.7186 97.5635 27.7874 91.2158C28.8561 84.8047 37.6733 81.9482 55.7753 85.9473C57.9128 86.3916 59.5827 89.7559 58.18 92.6758C58.18 92.6758 63.9913 106.26 65.7948 117.368C67.5983 128.477 68.5335 140.093 70.5374 145.488C72.4745 150.884 70.8714 156.914 65.4608 156.914C60.1171 156.914 39.0093 156.914 32.4632 156.914C25.9171 156.914 25.1155 148.281 27.7206 139.268C30.2589 130.317 34.0663 105.498 32.9976 99.0234Z" fill="#444496"/>
<path d="M47.6936 95.5323C57.9803 97.627 50.8331 117.051 48.7624 122.573C46.6917 128.159 44.4206 133.11 47.6936 137.427C50.9667 141.743 56.7112 146.567 56.7112 146.567L52.837 154.312C52.837 154.312 31.3952 151.709 26.2518 145.679C21.1753 139.648 24.0475 126.191 28.4561 116.924C32.8647 107.656 40.012 94.0088 47.6936 95.5323Z" fill="white"/>
<path d="M52.2356 155.645C51.9684 155.518 51.9016 155.264 51.9684 155.01L57.1786 144.219C57.3122 143.965 57.5794 143.901 57.8466 143.965C58.1137 144.092 58.1805 144.346 58.1137 144.6L52.9036 155.391C52.77 155.645 52.5028 155.708 52.2356 155.645Z" fill="#A77071"/>
<path d="M47.3585 192.397C47.3585 193.984 46.0225 195.317 44.2858 195.317C42.6159 195.317 41.2131 193.984 41.2131 192.397C41.2131 190.811 42.5491 189.478 44.2858 189.478C46.0225 189.541 47.3585 190.811 47.3585 192.397Z" fill="#1DA1CE"/>
<path d="M28.2545 191.636C23.9795 191.636 20.5061 188.335 20.5061 184.272C20.5061 180.21 23.9795 176.909 28.2545 176.909C32.5295 176.909 36.003 180.21 36.003 184.272C36.003 188.335 32.5295 191.636 28.2545 191.636ZM28.2545 180.781C26.1838 180.781 24.5807 182.368 24.5807 184.272C24.5807 186.177 26.2506 187.764 28.2545 187.764C30.3252 187.764 31.9284 186.177 31.9284 184.272C31.9284 182.368 30.3252 180.781 28.2545 180.781Z" fill="#FCC450"/>
<path d="M251.022 47.6074H248.484V50.083C248.484 51.2256 247.549 52.1143 246.347 52.1143C245.144 52.1143 244.209 51.2256 244.209 50.083V47.6074H241.604C240.402 47.6074 239.467 46.7188 239.467 45.5762C239.467 44.4336 240.402 43.5449 241.604 43.5449H244.209V41.0693C244.209 39.9268 245.144 39.0381 246.347 39.0381C247.549 39.0381 248.484 39.9268 248.484 41.0693V43.5449H251.089C252.292 43.5449 253.227 44.4336 253.227 45.5762C253.16 46.7188 252.225 47.6074 251.022 47.6074Z" fill="#1DA1CE"/>
<path d="M271.997 34.7852C271.997 36.3721 270.661 37.7051 268.924 37.7051C267.254 37.7051 265.851 36.4355 265.851 34.7852C265.851 33.1982 267.254 31.8652 268.924 31.8652C270.594 31.8652 271.997 33.1348 271.997 34.7852Z" fill="#345185"/>
<path d="M113.889 100.103C104.671 78.1397 109.413 52.1777 128.116 34.4043C137.134 25.835 148.155 20.3125 159.778 17.9639L166.658 47.6074C152.163 50.5908 141.342 62.8418 141.342 77.5049C141.342 81.5039 142.144 85.3125 143.613 88.8672L113.889 100.103Z" fill="#345185"/>
<path d="M128.116 120.605C127.648 120.161 127.114 119.653 126.646 119.146L149.959 98.3887C155.837 104.355 164.186 108.037 173.471 108.037C191.239 108.037 205.667 94.3262 205.667 77.4414C205.667 65.3809 198.386 54.9707 187.699 50.0195L201.86 22.7881C208.005 25.6445 213.75 29.5166 218.826 34.3408C243.875 58.1445 243.875 96.8018 218.826 120.605C193.844 144.409 153.165 144.409 128.116 120.605Z" fill="white"/>
<path d="M173.539 46.9092C171.134 46.9092 168.863 47.1631 166.658 47.6074L159.845 17.9639C173.873 15.0439 188.768 16.6309 201.927 22.8516L187.766 50.083C183.491 47.9883 178.615 46.9092 173.539 46.9092Z" fill="#1DA1CE"/>
<path d="M126.647 119.146C121.036 113.433 116.761 106.958 113.889 100.103L143.613 88.8672C145.083 92.4219 147.287 95.6592 150.026 98.4522L126.647 119.146Z" fill="#C1E4EE"/>
<path d="M319.756 63.9209V268.188C319.756 271.616 316.817 274.409 313.21 274.409H175.742C172.135 274.409 169.196 271.616 169.196 268.188V63.9209C169.196 60.4932 172.135 57.6367 175.742 57.6367H313.143C316.817 57.6367 319.756 60.4297 319.756 63.9209Z" fill="#4FBECB"/>
<path d="M154.032 280.249H334.918C336.588 280.249 337.991 278.979 337.991 277.329C337.991 275.742 336.655 274.409 334.918 274.409H154.032C152.362 274.409 150.96 275.679 150.96 277.329C150.96 278.979 152.362 280.249 154.032 280.249Z" fill="#E2E2E1"/>
<path d="M319.756 63.8574V79.0918H169.196V63.8574C169.196 60.4297 172.135 57.5732 175.742 57.5732H313.143C316.817 57.6367 319.756 60.4297 319.756 63.8574Z" fill="#4FBECB"/>
<path d="M244.476 269.014C241.069 269.014 238.33 266.411 238.33 263.174C238.33 259.936 241.069 257.334 244.476 257.334C247.882 257.334 250.621 259.936 250.621 263.174C250.688 266.411 247.882 269.014 244.476 269.014Z" fill="#E6F2EA"/>
<path d="M186.562 70.5859C185.16 70.5859 184.024 69.5068 184.024 68.1738C184.024 66.8408 185.16 65.7617 186.562 65.7617C187.965 65.7617 189.101 66.8408 189.101 68.1738C189.034 69.5068 187.898 70.5859 186.562 70.5859Z" fill="#E6F2EA"/>
<path d="M194.511 70.5859C193.109 70.5859 191.973 69.5068 191.973 68.1738C191.973 66.8408 193.109 65.7617 194.511 65.7617C195.914 65.7617 197.05 66.8408 197.05 68.1738C197.05 69.5068 195.914 70.5859 194.511 70.5859Z" fill="#E6F2EA"/>
<path d="M317.418 79.0918H171.533V251.05H317.418V79.0918Z" fill="#D2EBF7"/>
<path d="M197.646 136.729V116.353L149.352 116.353V136.729H197.646Z" fill="#A9DAE5"/>
<path d="M227.117 188.579V168.203H178.823V188.579H227.117Z" fill="#A9DAE5"/>
<path d="M212.415 162.686V142.31H164.121V162.686H212.415Z" fill="#A9DAE5"/>
<path d="M309.069 86.3281H178.815V109.497H309.069V86.3281Z" fill="#EDF6F4"/>
<path d="M305.127 89.6288H287.827V106.069H305.127V89.6288Z" fill="#D2E8F2"/>
<path d="M224.704 90.6445H187.231V93.8184H224.704V90.6445Z" fill="#1DA1CE"/>
<path d="M224.704 96.2938H187.231V99.4677H224.704V96.2938Z" fill="#1DA1CE"/>
<path d="M212.48 101.943H187.231V105.117H212.48V101.943Z" fill="#1DA1CE"/>
<path opacity="0.5" d="M333.649 185.288H227.108V232.832H333.649V185.288Z" fill="#96CEB8"/>
<path d="M279.544 201.728H237.729V205.727H279.544V201.728Z" fill="#E6F2EA"/>
<path d="M269.591 208.838H237.729V212.837H269.591V208.838Z" fill="#E6F2EA"/>
<path d="M259.238 216.011H237.729V220.01H259.238V216.011Z" fill="#E6F2EA"/>
<path d="M274.734 216.011H261.909V220.01H274.734V216.011Z" fill="#E6F2EA"/>
<path d="M266.786 223.12H237.729V227.119H266.786V223.12Z" fill="#E6F2EA"/>
<path d="M217.29 196.206H178.815V232.768H217.29V196.206Z" fill="#9FD2BA"/>
<path d="M206.561 222.688C211.256 218.226 211.256 210.992 206.561 206.53C201.866 202.068 194.253 202.068 189.557 206.53C184.862 210.992 184.862 218.226 189.557 222.688C194.253 227.15 201.866 227.15 206.561 222.688Z" fill="#7CC39E"/>
<path d="M207.204 214.614C207.204 217.471 205.735 220.01 203.463 221.597C202.795 222.041 202.061 222.485 201.259 222.739C200.925 222.866 200.524 222.993 200.19 223.057C199.99 223.12 199.723 223.12 199.522 223.184C199.055 223.247 198.587 223.31 198.12 223.31C197.185 223.31 196.249 223.184 195.381 222.93C191.64 221.851 188.969 218.55 188.969 214.614C188.969 213.281 189.302 211.948 189.904 210.806C190.638 209.409 191.707 208.203 193.043 207.378C193.377 207.187 193.711 206.997 194.045 206.807C194.78 206.426 195.581 206.172 196.45 206.045C196.984 205.918 197.585 205.918 198.12 205.918C201.994 205.918 205.334 208.203 206.603 211.44C206.937 212.456 207.204 213.472 207.204 214.614Z" fill="#EFF4F4"/>
<path d="M198.053 215.63C197.452 215.63 196.984 215.185 196.984 214.614V209.028C196.984 208.457 197.452 208.013 198.053 208.013C198.654 208.013 199.122 208.457 199.122 209.028V214.614C199.122 215.185 198.654 215.63 198.053 215.63Z" fill="#C1D6CF"/>
<path d="M198.053 215.63C197.719 215.63 197.385 215.439 197.184 215.185C196.85 214.741 197.051 214.106 197.518 213.789L200.524 211.948C200.992 211.631 201.66 211.821 201.994 212.266C202.328 212.71 202.127 213.345 201.66 213.662L198.654 215.503C198.454 215.566 198.253 215.63 198.053 215.63Z" fill="#C1D6CF"/>
<path d="M309.068 116.353H233.053V188.589H309.068V116.353Z" fill="#98D5E9"/>
<path d="M271.061 155.708C265.717 155.708 261.375 151.582 261.375 146.504V140.981C261.375 135.903 265.717 131.777 271.061 131.777C276.405 131.777 280.746 135.903 280.746 140.981V146.504C280.746 151.582 276.405 155.708 271.061 155.708Z" fill="#F8FCFA"/>
<path d="M271.061 151.011C261.91 151.011 254.095 156.089 250.421 163.452C248.283 167.769 251.556 172.72 256.566 172.72H285.623C290.633 172.72 293.906 167.769 291.768 163.452C288.094 156.089 280.212 151.011 271.061 151.011Z" fill="#F8FCFA"/>
<path d="M309.054 241.118V235.215L178.8 235.215V241.118L309.054 241.118Z" fill="#FFE1AB"/>
<path d="M318.821 114.004V92.4854C320.424 92.4854 321.76 93.7549 321.76 95.2783V111.274C321.76 112.798 320.424 114.004 318.821 114.004Z" fill="#4FBECB"/>
<path d="M318.821 138.062V116.543C320.424 116.543 321.76 117.812 321.76 119.336V135.332C321.76 136.792 320.424 138.062 318.821 138.062Z" fill="#4FBECB"/>
<path opacity="0.3" d="M256.165 79.0918L171.533 159.517V116.289L210.676 79.0918H256.165Z" fill="#F6FBFD"/>
<path opacity="0.3" d="M287.827 79.0918L171.533 189.604V168.022L265.116 79.0918H287.827Z" fill="#F6FBFD"/>
<path opacity="0.3" d="M201.725 202.871V221.406C201.725 222.168 201.191 222.866 200.456 223.057V274.346H175.808C172.201 274.346 169.262 271.553 169.262 268.125V165.103H195.914C198.452 165.103 200.456 167.07 200.456 169.419V201.221C201.191 201.475 201.725 202.109 201.725 202.871Z" fill="#385F82"/>
<path d="M182.956 156.533V298.34C182.956 300.752 180.886 302.656 178.414 302.656H100.061C97.59 302.656 95.5193 300.752 95.5193 298.34V156.533C95.5193 154.121 97.59 152.217 100.061 152.217H178.347C180.886 152.217 182.956 154.121 182.956 156.533Z" fill="#FFA944"/>
<path d="M182.956 156.533V167.134H95.5193V156.533C95.5193 154.121 97.59 152.217 100.061 152.217H178.414C180.886 152.217 182.956 154.185 182.956 156.533Z" fill="#FFA944"/>
<path d="M139.204 298.975C136.867 298.975 134.929 297.134 134.929 294.912C134.929 292.69 136.867 290.85 139.204 290.85C141.542 290.85 143.479 292.69 143.479 294.912C143.479 297.134 141.609 298.975 139.204 298.975Z" fill="#E6F2EA"/>
<path d="M123.373 161.167C122.438 161.167 121.637 160.405 121.637 159.517C121.637 158.628 122.438 157.866 123.373 157.866C124.309 157.866 125.11 158.628 125.11 159.517C125.11 160.469 124.375 161.167 123.373 161.167Z" fill="#E6F2EA"/>
<path d="M148.021 160.151H130.721C130.387 160.151 130.053 159.897 130.053 159.517C130.053 159.136 130.32 158.882 130.721 158.882H148.021C148.355 158.882 148.689 159.136 148.689 159.517C148.689 159.897 148.355 160.151 148.021 160.151Z" fill="#E6F2EA"/>
<path d="M181.287 167.134H97.1226V286.533H181.287V167.134Z" fill="#D2EBF7"/>
<path d="M119.165 230.61H103.869V235.181H119.165V230.61Z" fill="#EDF6F4"/>
<path d="M158.108 230.61H142.812V235.181H158.108V230.61Z" fill="#EDF6F4"/>
<path d="M138.603 230.61H123.307V235.181H138.603V230.61Z" fill="#EDF6F4"/>
<path d="M174.674 238.926H113.087V254.985H174.674V238.926Z" fill="#EDF6F4"/>
<path d="M171.935 241.211H159.912V252.637H171.935V241.211Z" fill="#D5EAE4"/>
<path d="M135.931 241.909H109.881V244.131H135.931V241.909Z" fill="#1DA1CE"/>
<path d="M135.931 245.845H109.881V248.066H135.931V245.845Z" fill="#1DA1CE"/>
<path d="M127.381 249.78H109.881V252.002H127.381V249.78Z" fill="#1DA1CE"/>
<path d="M149.023 258.984H104.002V279.043H149.023V258.984Z" fill="#EDF6F4"/>
<path d="M132.859 262.031H109.881V264.253H132.859V262.031Z" fill="#FFE1AB"/>
<path d="M127.382 265.903H109.881V268.125H127.382V265.903Z" fill="#FFE1AB"/>
<path d="M121.704 269.839H109.881V272.061H121.704V269.839Z" fill="#FFE1AB"/>
<path d="M130.186 269.839H123.172V272.061H130.186V269.839Z" fill="#1DA1CE"/>
<path d="M125.845 273.774H109.881V275.996H125.845V273.774Z" fill="#FFE1AB"/>
<path opacity="0.5" d="M158.175 174.56H91.9121V225.913H158.175V174.56Z" fill="#FFE1AB"/>
<path d="M131.122 216.518C140.492 216.518 148.089 209.3 148.089 200.395C148.089 191.491 140.492 184.272 131.122 184.272C121.752 184.272 114.156 191.491 114.156 200.395C114.156 209.3 121.752 216.518 131.122 216.518Z" fill="#FCC450"/>
<path d="M143.947 200.395C143.947 204.458 141.876 208.013 138.737 210.234C137.802 210.869 136.733 211.44 135.597 211.821C135.13 212.012 134.595 212.139 134.061 212.266C133.727 212.329 133.393 212.393 133.126 212.456C132.458 212.583 131.79 212.583 131.122 212.583C129.786 212.583 128.517 212.393 127.314 212.012C122.104 210.488 118.297 205.791 118.297 200.332C118.297 198.428 118.764 196.65 119.566 195C120.568 193.032 122.104 191.318 124.041 190.112C124.509 189.795 124.977 189.541 125.444 189.351C126.513 188.843 127.648 188.462 128.784 188.271C129.586 188.144 130.32 188.081 131.122 188.081C136.599 188.081 141.275 191.318 143.079 195.889C143.68 197.349 143.947 198.872 143.947 200.395Z" fill="#EFF4F4"/>
<path d="M131.122 201.855C130.32 201.855 129.652 201.221 129.652 200.459V192.651C129.652 191.89 130.32 191.255 131.122 191.255C131.923 191.255 132.591 191.89 132.591 192.651V200.459C132.591 201.221 131.923 201.855 131.122 201.855Z" fill="#C1D6CF"/>
<path d="M131.122 201.855C130.654 201.855 130.12 201.602 129.852 201.221C129.385 200.586 129.652 199.697 130.32 199.253L134.595 196.714C135.263 196.269 136.198 196.523 136.666 197.158C137.133 197.793 136.866 198.682 136.198 199.126L131.923 201.665C131.656 201.792 131.389 201.855 131.122 201.855Z" fill="#C1D6CF"/>
<path opacity="0.3" d="M155.904 167.134L97.1226 222.93V192.969L124.309 167.134H155.904Z" fill="#F6FBFD"/>
<path opacity="0.3" d="M177.88 167.134L97.1226 243.877V228.833L162.049 167.134H177.88Z" fill="#F6FBFD"/>
<g opacity="0.7">
<path opacity="0.7" d="M186.163 258.984H153.566V289.961H186.163V258.984Z" fill="#9FD2BA"/>
<path opacity="0.7" d="M169.797 275.869C167.526 275.869 165.656 274.092 165.656 271.934V269.585C165.656 267.427 167.526 265.649 169.797 265.649C172.069 265.649 173.939 267.427 173.939 269.585V271.934C174.006 274.092 172.135 275.869 169.797 275.869Z" fill="#F8FCFA"/>
<path opacity="0.7" d="M169.797 273.838C165.856 273.838 162.516 275.996 160.913 279.17C159.978 281.011 161.381 283.169 163.518 283.169H175.943C178.08 283.169 179.483 281.011 178.548 279.17C177.145 275.996 173.738 273.838 169.797 273.838Z" fill="#F8FCFA"/>
</g>
<path d="M173.805 174.56H164.119V235.181H173.805V174.56Z" fill="#9FD2BA"/>
<path d="M182.289 210.361V188.208C183.357 188.208 184.226 189.033 184.226 190.049V208.584C184.226 209.536 183.357 210.361 182.289 210.361Z" fill="#FFA944"/>
<path opacity="0.3" d="M123.774 152.217L115.758 174.561L97.3225 225.913L95.519 230.991V225.913H91.9788V174.561H95.519V156.533C95.519 154.121 97.5897 152.217 100.061 152.217H123.774Z" fill="#385F82"/>
<path d="M51.9008 308.496H195.247C196.917 308.496 198.32 307.227 198.32 305.576C198.32 303.989 196.984 302.656 195.247 302.656H51.9008C50.2309 302.656 48.8281 303.926 48.8281 305.576C48.8949 307.227 50.2309 308.496 51.9008 308.496Z" fill="#E2E2E1"/>
</svg>
